<?xml version="1.0" standalone="no"?>
<!DOCTYPE svg PUBLIC "-//W3C//DTD SVG 20010904//EN"
 "http://www.w3.org/TR/2001/REC-SVG-20010904/DTD/svg10.dtd">
<svg version="1.0" xmlns="http://www.w3.org/2000/svg"
 width="784.000000pt" height="518.000000pt" viewBox="0 0 784.000000 518.000000"
 preserveAspectRatio="xMidYMid meet">
<metadata>
Created by potrace 1.16, written by Peter Selinger 2001-2019
</metadata>
<g transform="translate(0.000000,518.000000) scale(0.100000,-0.100000)"
fill="#000000" stroke="none">
<path d="M0 2590 l0 -2590 3920 0 3920 0 0 2590 0 2590 -3920 0 -3920 0 0
-2590z m3463 360 l11 -30 237 0 237 0 6 -22 c8 -30 8 -502 0 -522 -5 -14 -50
-16 -395 -16 l-389 0 -5 23 c-9 45 -43 362 -38 370 2 4 62 7 133 7 l129 0 16
30 16 30 232 0 c127 0 238 -4 246 -9 9 -6 18 -47 26 -122 l12 -114 2 162 1
163 -237 2 -238 3 -13 28 -13 27 -115 0 -114 0 0 -90 c0 -53 -4 -90 -10 -90
-11 0 -14 157 -4 184 5 13 26 16 131 16 l125 0 11 -30z m-836 -127 c8 -21 -27
-88 -47 -88 -18 0 -20 37 -2 43 8 2 10 -2 6 -15 -6 -15 -5 -16 7 -5 12 11 11
15 -3 26 -18 13 -23 37 -11 49 12 13 44 7 50 -10z m1603 -148 c0 -158 1 -165
20 -165 18 0 20 7 20 60 l0 60 50 0 c68 0 100 30 100 93 0 68 -23 89 -99 95
l-61 4 0 -61 0 -61 45 0 c41 0 45 2 45 25 0 21 -5 25 -30 25 -24 0 -30 -4 -30
-21 0 -11 -4 -17 -10 -14 -5 3 -10 17 -10 31 0 21 5 24 34 24 51 0 66 -9 66
-39 0 -39 -18 -51 -77 -51 l-53 0 0 80 0 80 60 0 c66 0 113 -18 130 -49 15
-29 12 -109 -6 -136 -17 -26 -61 -45 -105 -45 -29 0 -29 -1 -29 -60 l0 -60
-40 0 -40 0 0 175 c0 110 4 175 10 175 6 0 10 -62 10 -165z m473 151 c78 -32
124 -131 97 -210 -34 -105 -136 -148 -238 -101 -45 21 -56 32 -77 77 -29 62
-31 85 -10 136 40 95 137 137 228 98z m175 -314 c21 -3 22 0 22 62 0 62 1 66
23 66 18 0 31 -14 58 -62 28 -51 40 -64 62 -66 l28 -3 -26 51 c-15 29 -24 55
-21 58 3 3 7 3 9 1 9 -11 67 -119 67 -124 0 -4 -21 -5 -47 -3 -47 3 -48 4 -83
65 -19 35 -38 63 -42 63 -5 0 -8 -30 -8 -66 l0 -65 -42 3 -43 3 -3 160 c-1 87
1 166 5 175 5 8 10 -59 13 -150 5 -162 5 -165 28 -168z m121 322 c52 -11 81
-49 81 -106 0 -50 -16 -76 -65 -104 -18 -10 -18 -12 3 -46 23 -37 29 -63 12
-53 -9 6 -60 98 -60 109 0 2 13 7 30 11 16 4 37 16 45 28 15 22 20 73 9 102
-10 25 -59 45 -114 45 l-50 0 0 -144 c0 -86 -4 -147 -10 -151 -7 -4 -10 50
-10 154 l0 161 49 0 c27 0 62 -3 80 -6z m381 -34 l0 -40 -60 0 -60 0 0 -115
c0 -70 -4 -115 -10 -115 -6 0 -10 48 -10 125 l0 125 60 0 c53 0 60 2 60 20 0
19 -6 20 -107 18 l-108 -2 98 -3 c131 -5 125 -23 -8 -23 l-105 0 0 25 0 25
125 0 125 0 0 -40z m45 -128 c0 -154 0 -157 22 -160 20 -3 22 1 25 60 l3 63
60 6 60 6 -62 1 c-87 3 -80 22 7 22 68 0 70 -1 70 -25 0 -24 -3 -25 -60 -25
l-60 0 0 -65 0 -65 -40 0 -39 0 -3 171 c-2 94 -1 173 1 175 13 12 16 -23 16
-164z m205 123 l0 -45 -59 0 c-33 0 -63 5 -66 10 -4 6 15 10 49 10 53 0 56 1
56 25 0 24 -2 25 -75 25 l-75 0 0 -144 c0 -86 -4 -147 -10 -151 -7 -4 -10 50
-10 154 l0 161 95 0 95 0 0 -45z m274 25 c157 -76 104 -319 -71 -323 -116 -3
-203 102 -174 210 30 111 143 163 245 113z m176 -135 c0 -97 -4 -155 -10 -155
-6 0 -10 55 -10 145 0 92 -4 145 -10 145 -7 0 -10 -53 -8 -152 l3 -153 78 -3
c77 -3 77 -3 77 23 0 23 -4 25 -41 25 -24 0 -38 4 -34 10 3 6 26 10 51 10 l44
0 0 -45 0 -46 -96 3 -96 3 -4 173 -4 172 30 0 30 0 0 -155z m30 10 l0 -145 40
0 c22 0 40 -4 40 -10 0 -5 -22 -10 -50 -10 l-50 0 0 155 c0 97 4 155 10 155 6
0 10 -55 10 -145z m231 128 c5 -149 2 -293 -6 -293 -6 0 -9 52 -8 140 1 79 -2
142 -8 145 -5 4 -9 -54 -9 -149 l0 -156 25 0 25 0 0 165 c0 106 4 165 10 165
7 0 10 -60 8 -172 l-3 -173 -40 0 -40 0 -3 173 -2 172 25 0 c17 0 25 -6 26
-17z m334 -6 c58 -33 87 -88 82 -160 -5 -87 -60 -147 -148 -161 -61 -10 -137
29 -168 85 -30 53 -27 139 8 187 49 70 151 92 226 49z m-2316 -18 c51 -18 69
-91 31 -129 -15 -15 -33 -20 -75 -20 l-55 0 0 -65 c0 -37 -4 -65 -10 -65 -6 0
-10 32 -10 75 l0 75 65 0 c53 0 66 3 75 19 29 55 -4 101 -73 101 -23 0 -36 4
-32 10 8 13 44 13 84 -1z m633 1 c40 -12 58 -34 58 -73 0 -44 -29 -67 -92 -74
-37 -4 -58 -2 -58 4 0 6 22 13 50 15 27 3 56 11 65 18 19 16 20 64 0 80 -20
17 -95 26 -95 11 0 -6 13 -11 29 -11 46 0 61 -10 61 -40 0 -32 -14 -40 -71
-40 -35 0 -39 3 -39 25 0 14 5 25 10 25 6 0 10 -7 10 -15 0 -10 11 -15 35 -15
28 0 35 4 35 20 0 17 -7 20 -45 20 -40 0 -45 2 -45 23 0 40 22 46 92 27z m608
0 c0 -5 -25 -10 -55 -10 l-55 0 0 -45 0 -45 61 0 c37 0 58 -4 54 -10 -3 -5
-35 -10 -71 -10 l-64 0 0 65 0 65 65 0 c37 0 65 -4 65 -10z m-3985 -40 c0 -33
-2 -35 -35 -37 -19 -1 -43 -2 -52 -2 -15 -1 -18 -15 -21 -103 l-3 -103 -2 113
-2 112 50 0 c43 0 50 3 50 20 0 19 -6 20 -92 18 l-93 -2 83 -3 c111 -5 105
-23 -8 -23 -90 0 -90 0 -90 25 l0 26 108 -3 107 -3 0 -35z m242 21 c65 -30 99
-97 83 -167 -12 -53 -40 -86 -91 -107 -144 -60 -272 119 -169 237 48 54 110
67 177 37z m227 -73 l86 -93 0 73 c0 41 4 72 10 72 6 0 10 -35 10 -85 0 -47
-3 -85 -7 -85 -10 0 -203 193 -203 202 0 21 25 1 104 -84z m136 -57 c0 -99 -4
-152 -11 -157 -6 -4 -51 34 -105 87 l-94 94 2 -85 c2 -76 2 -78 5 -22 2 34 8
62 14 62 6 0 9 -27 7 -67 -3 -60 -5 -68 -23 -68 -19 0 -20 8 -23 110 l-3 110
106 -105 105 -105 0 138 c0 130 -1 137 -20 137 -18 0 -20 -7 -20 -60 0 -33 -4
-60 -10 -60 -6 0 -10 30 -10 70 l0 70 40 0 40 0 0 -149z m88 75 c51 -73 52
-76 52 -146 0 -68 1 -71 23 -68 20 3 22 9 25 72 3 64 7 75 47 133 24 35 40 63
36 63 -5 0 -30 -30 -55 -67 -43 -63 -46 -72 -46 -132 0 -35 -3 -61 -7 -58 -3
4 -5 37 -4 73 2 61 6 72 49 135 34 49 53 68 70 69 12 0 22 -4 22 -10 0 -5 -22
-41 -50 -80 -49 -69 -50 -71 -50 -146 l0 -75 -37 3 -37 3 -1 75 c0 73 -1 77
-46 140 -57 81 -62 90 -51 90 4 0 32 -33 60 -74z m41 45 c32 -44 24 -61 -9
-21 -38 45 -39 27 -1 -22 l28 -38 37 56 c21 31 40 53 43 50 6 -6 -68 -126 -78
-126 -7 0 -89 115 -89 124 0 3 11 6 24 6 16 0 32 -11 45 -29z m470 9 c57 -26
49 -34 -16 -13 -66 21 -99 12 -120 -32 -15 -31 -15 -36 1 -60 10 -15 38 -36
62 -47 52 -22 64 -42 40 -66 -13 -13 -23 -14 -56 -5 -34 9 -42 8 -49 -6 -7
-12 -2 -18 21 -28 47 -20 86 -16 113 12 47 46 25 99 -54 131 -45 18 -58 41
-36 63 12 12 22 13 55 4 22 -5 40 -7 40 -3 0 10 -37 20 -73 20 -20 0 -31 -7
-39 -25 -14 -31 1 -51 59 -76 51 -22 71 -55 53 -88 -20 -39 -82 -52 -116 -26
-17 14 -15 15 33 9 45 -6 52 -4 62 14 20 37 13 52 -34 73 -58 25 -75 44 -75
79 0 59 84 77 140 32 20 -16 20 -19 7 -31 -12 -9 -21 -10 -36 -2 -28 15 -74
14 -69 -1 3 -7 25 -23 49 -34 57 -28 71 -45 71 -90 0 -40 -29 -79 -68 -88 -26
-7 -101 9 -121 26 -19 16 13 72 35 62 9 -4 32 -9 50 -12 50 -7 41 22 -13 42
-51 20 -75 48 -75 89 0 38 15 64 48 81 36 20 59 19 111 -4z m-743 -110 c60
-61 111 -116 113 -123 2 -7 -44 35 -103 93 l-106 105 0 -128 c0 -83 -4 -126
-10 -122 -9 6 -15 285 -7 285 2 0 53 -50 113 -110z m3152 -27 c2 -125 4 -133
22 -133 19 0 20 7 20 115 0 70 4 115 10 115 6 0 10 -48 10 -125 l0 -125 -40 0
-39 0 -3 133 -3 132 -37 3 c-56 5 -46 24 10 20 l47 -3 3 -132z m-3748 -19 c0
-114 0 -115 23 -112 21 3 22 7 22 101 0 53 3 97 8 97 4 0 7 -49 7 -110 l0
-110 -35 0 -35 0 0 115 0 115 -35 0 c-19 0 -35 5 -35 10 0 6 18 10 40 10 l40
0 0 -116z"/>
<path d="M3418 2770 l-17 -30 -131 0 -131 0 6 -42 c6 -50 35 -300 35 -310 0
-5 171 -8 380 -8 l381 0 -6 58 c-4 31 -14 125 -23 207 l-17 150 -230 3 -230 2
-17 -30z m137 -130 l-49 -50 42 -43 c23 -23 42 -49 42 -57 0 -8 -25 10 -55 40
l-55 54 52 53 c29 29 57 53 62 53 6 0 -12 -22 -39 -50z m108 -53 c-20 -53 -38
-95 -41 -93 -2 3 8 40 23 83 32 87 45 117 50 111 2 -2 -12 -48 -32 -101z m119
56 c26 -26 48 -51 48 -56 0 -15 -92 -107 -102 -101 -6 4 12 28 38 55 l48 49
-49 50 c-27 28 -45 50 -40 50 5 0 31 -21 57 -47z"/>
<path d="M2590 2815 c0 -8 5 -15 10 -15 6 0 10 7 10 15 0 8 -4 15 -10 15 -5 0
-10 -7 -10 -15z"/>
<path d="M4580 2813 c-29 -10 -80 -67 -91 -100 -36 -111 74 -224 190 -193 43
11 97 64 107 106 17 69 -19 149 -80 178 -33 16 -95 20 -126 9z m117 -22 c50
-23 76 -67 76 -128 0 -133 -184 -184 -253 -70 -48 79 -11 179 75 206 44 13 56
13 102 -8z"/>
<path d="M4603 2783 c-13 -2 -36 -18 -53 -34 -25 -26 -30 -38 -30 -81 0 -44 4
-54 34 -84 29 -29 41 -34 80 -34 88 0 146 83 113 163 -23 54 -82 83 -144 70z
m108 -42 c50 -50 33 -144 -30 -171 -91 -37 -183 58 -140 143 19 38 51 57 97
57 35 0 49 -6 73 -29z"/>
<path d="M4575 2725 c-37 -36 -34 -86 6 -119 60 -51 139 -17 139 59 0 76 -92
114 -145 60z"/>
<path d="M5754 2801 c-77 -47 -100 -122 -62 -199 29 -58 74 -86 140 -86 54 0
89 21 126 75 30 43 27 120 -6 166 -43 60 -137 81 -198 44z m134 -11 c74 -33
100 -127 55 -198 -21 -34 -73 -62 -116 -62 -81 0 -137 58 -137 142 0 39 6 54
31 83 48 54 100 65 167 35z"/>
<path d="M5774 2770 c-47 -23 -64 -53 -64 -111 0 -33 7 -48 34 -75 28 -28 42
-34 75 -34 57 0 95 22 116 66 29 62 2 134 -60 160 -45 18 -52 18 -101 -6z
m127 -29 c50 -50 33 -144 -30 -171 -91 -37 -183 58 -140 143 19 38 51 57 97
57 35 0 49 -6 73 -29z"/>
<path d="M5765 2725 c-56 -55 -12 -145 71 -145 37 0 74 42 74 85 0 76 -92 114
-145 60z"/>
<path d="M6520 2802 c-51 -25 -80 -74 -80 -135 0 -89 58 -148 149 -151 87 -2
151 64 151 156 0 112 -117 182 -220 130z m112 -2 c76 -22 114 -105 84 -185
-30 -76 -113 -106 -192 -69 -108 51 -93 219 22 254 39 11 44 11 86 0z"/>
<path d="M6544 2776 c-66 -29 -92 -102 -60 -165 21 -39 58 -61 106 -61 96 0
150 96 100 178 -19 31 -72 63 -102 62 -7 -1 -27 -7 -44 -14z m110 -27 c46 -36
51 -115 10 -160 -41 -45 -131 -31 -165 25 -29 47 -24 83 15 122 41 41 97 47
140 13z"/>
<path d="M6542 2743 c-17 -6 -42 -57 -42 -83 0 -33 53 -80 89 -80 76 0 114 97
57 146 -26 23 -72 30 -104 17z"/>
<path d="M1723 2760 c-114 -69 -61 -250 74 -250 66 0 133 67 133 133 0 107
-116 173 -207 117z m147 -18 c30 -23 52 -81 44 -121 -8 -38 -56 -87 -94 -94
-46 -10 -101 13 -127 52 -28 42 -29 86 -3 129 37 61 122 77 180 34z"/>
<path d="M1741 2736 c-70 -39 -67 -148 6 -185 42 -21 83 -13 119 23 88 88 -16
222 -125 162z m99 -11 c63 -33 58 -137 -9 -164 -60 -25 -119 10 -128 76 -5 37
-2 46 25 73 34 34 67 38 112 15z"/>
<path d="M1742 2700 c-22 -21 -30 -73 -14 -96 11 -16 48 -34 72 -34 28 0 70
43 70 73 0 13 -9 36 -21 51 -26 33 -75 35 -107 6z"/>
</g>
</svg>
